<?xml version="1.0" encoding="UTF-8"?>
<svg width="259px" height="53px" viewBox="0 0 778 160" version="1.1" xmlns="http://www.w3.org/2000/svg" xmlns:xlink="http://www.w3.org/1999/xlink">
    <!-- Generator: Sketch 53.2 (72643) - https://sketchapp.com -->
    <title>Group</title>
    <desc>Created with Sketch.</desc>
    <g id="Page-1" stroke="none" stroke-width="1" fill="none" fill-rule="evenodd">
        <g id="Desktop" transform="translate(-132.000000, -441.000000)" fill-rule="nonzero">
            <g id="Group" transform="translate(132.000000, 441.000000)">
                <path d="M5.17832797,157.5 C3.67735584,157.5 2.4390724,157.012505 1.46344051,156.0375 C0.487808627,155.062495 -2.84217094e-14,153.825007 -2.84217094e-14,152.325 L-2.84217094e-14,5.4 C-2.84217094e-14,3.74999175 0.487808627,2.43750487 1.46344051,1.4625 C2.4390724,0.487495125 3.67735584,0 5.17832797,0 L60.1136334,0 C77.374813,0 90.8833596,4.0499595 100.639678,12.15 C110.395997,20.2500405 115.274084,31.9499235 115.274084,47.25 C115.274084,58.650057 112.459803,68.0249632 106.831158,75.375 C101.202512,82.7250367 93.2850028,87.8249858 83.0783923,90.675 L117.750675,150.525 C118.200967,151.425005 118.426109,152.249996 118.426109,153 C118.426109,154.200006 117.938301,155.249996 116.962669,156.15 C115.987037,157.050005 114.898848,157.5 113.698071,157.5 L102.891125,157.5 C100.639667,157.5 98.8760514,156.975005 97.6002251,155.925 C96.3243988,154.874995 95.1611628,153.37501 94.1104823,151.425 L61.4645016,94.275 L22.0641801,94.275 L22.0641801,152.325 C22.0641801,153.825007 21.5388477,155.062495 20.4881672,156.0375 C19.4374867,157.012505 18.1616795,157.5 16.6607074,157.5 L5.17832797,157.5 Z M59.2130547,75.15 C81.5775395,75.15 92.7596141,65.7750938 92.7596141,47.025 C92.7596141,28.2749062 81.5775395,18.9 59.2130547,18.9 L22.0641801,18.9 L22.0641801,75.15 L59.2130547,75.15 Z M136.887974,157.5 C135.687197,157.5 134.636532,157.050005 133.735949,156.15 C132.835365,155.249996 132.38508,154.200006 132.38508,153 C132.38508,151.799994 132.460128,150.975002 132.610225,150.525 L188.446109,4.95 C189.646887,1.6499835 192.048406,0 195.65074,0 L210.960579,0 C214.562912,0 216.964431,1.6499835 218.165209,4.95 L273.775949,150.525 L274.226238,153 C274.226238,154.200006 273.775953,155.249996 272.87537,156.15 C271.974786,157.050005 270.924122,157.5 269.723344,157.5 L258.240965,157.5 C256.589895,157.5 255.314088,157.087504 254.413505,156.2625 C253.512922,155.437496 252.912542,154.575004 252.612347,153.675 L240.229389,121.725 L166.381929,121.725 L153.998971,153.675 C153.698777,154.575004 153.060873,155.437496 152.085241,156.2625 C151.109609,157.087504 149.871326,157.5 148.370354,157.5 L136.887974,157.5 Z M233.700193,102.375 L203.305659,22.5 L172.911125,102.375 L233.700193,102.375 Z M303.495048,157.5 C301.994076,157.5 300.755793,157.012505 299.780161,156.0375 C298.804529,155.062495 298.31672,153.825007 298.31672,152.325 L298.31672,5.4 C298.31672,3.74999175 298.804529,2.43750487 299.780161,1.4625 C300.755793,0.487495125 301.994076,0 303.495048,0 L314.752283,0 C317.153838,0 319.105073,1.199988 320.606045,3.6 L368.111576,94.5 L416.067395,3.6 C416.36759,2.6999955 417.005494,1.87500375 417.981125,1.125 C418.956757,0.37499625 420.195041,0 421.696013,0 L432.728103,0 C434.379172,0 435.692503,0.487495125 436.668135,1.4625 C437.643767,2.43750487 438.131576,3.74999175 438.131576,5.4 L438.131576,152.325 C438.131576,153.825007 437.606243,155.062495 436.555563,156.0375 C435.504882,157.012505 434.229075,157.5 432.728103,157.5 L421.696013,157.5 C420.195041,157.5 418.956757,157.012505 417.981125,156.0375 C417.005494,155.062495 416.517685,153.825007 416.517685,152.325 L416.517685,41.625 L378.918521,114.975 C377.417549,118.125016 375.016029,119.7 371.713891,119.7 L364.734405,119.7 C361.432266,119.7 359.030747,118.125016 357.529775,114.975 L319.705466,41.625 L319.705466,152.325 C319.705466,153.825007 319.217658,155.062495 318.242026,156.0375 C317.266394,157.012505 316.02811,157.5 314.527138,157.5 L303.495048,157.5 Z M482.259936,157.5 C480.758964,157.5 479.52068,157.012505 478.545048,156.0375 C477.569416,155.062495 477.081608,153.825007 477.081608,152.325 L477.081608,5.4 C477.081608,3.74999175 477.569416,2.43750487 478.545048,1.4625 C479.52068,0.487495125 480.758964,0 482.259936,0 L533.367781,0 C556.032461,0 572.392811,5.06244937 582.449325,15.1875 C592.505838,25.3125506 597.759162,40.574898 598.209453,60.975 C598.359551,65.3250218 598.434598,71.1749633 598.434598,78.525 C598.434598,85.8750367 598.359551,91.7999775 598.209453,96.3 C597.759162,110.550071 595.395166,122.137455 591.117395,131.0625 C586.839625,139.987545 580.122875,146.624978 570.966945,150.975 C561.811015,155.325022 549.653323,157.5 534.493505,157.5 L482.259936,157.5 Z M533.367781,138.375 C543.724489,138.375 551.942188,136.950014 558.021125,134.1 C564.100063,131.249986 568.527864,126.712531 571.304662,120.4875 C574.081461,114.262469 575.619934,105.900053 575.920129,95.4 C576.220323,86.399955 576.370418,80.7750112 576.370418,78.525 C576.370418,76.124988 576.220323,70.5750435 575.920129,61.875 C575.619934,47.0249258 572.092703,36.1875341 565.338328,29.3625 C558.583953,22.5374659 547.551974,19.125 532.242058,19.125 L499.145788,19.125 L499.145788,138.375 L533.367781,138.375 Z M691.644502,159.75 C672.281961,159.75 657.309989,154.537552 646.728135,144.1125 C636.146281,133.687448 630.855434,117.900106 630.855434,96.75 L630.855434,5.4 C630.855434,3.74999175 631.343243,2.43750487 632.318875,1.4625 C633.294506,0.487495125 634.53279,0 636.033762,0 L647.516141,0 C649.167211,0 650.480542,0.487495125 651.456174,1.4625 C652.431806,2.43750487 652.919614,3.74999175 652.919614,5.4 L652.919614,97.2 C652.919614,111.600072 656.296751,122.399964 663.051125,129.6 C669.8055,136.800036 679.33653,140.4 691.644502,140.4 C703.952473,140.4 713.483503,136.800036 720.237878,129.6 C726.992252,122.399964 730.369389,111.600072 730.369389,97.2 L730.369389,5.4 C730.369389,3.74999175 730.857198,2.43750487 731.83283,1.4625 C732.808461,0.487495125 734.046745,0 735.547717,0 L747.255241,0 C748.756213,0 749.994497,0.52499475 750.970129,1.575 C751.945761,2.62500525 752.433569,3.8999925 752.433569,5.4 L752.433569,96.75 C752.433569,117.900106 747.142722,133.687448 736.560868,144.1125 C725.979015,154.537552 711.007042,159.75 691.644502,159.75 Z" id="RAMDU" fill-opacity="0.738718313" fill="#8995A7"></path>
                <path d="M30.1944051,157.5 C28.693433,157.5 27.4551496,157.012505 26.4795177,156.0375 C25.5038858,155.062495 25.0160772,153.825007 25.0160772,152.325 L25.0160772,5.4 C25.0160772,3.74999175 25.5038858,2.43750487 26.4795177,1.4625 C27.4551496,0.487495125 28.693433,0 30.1944051,0 L85.1297106,0 C102.39089,0 115.899437,4.0499595 125.655756,12.15 C135.412075,20.2500405 140.290161,31.9499235 140.290161,47.25 C140.290161,58.650057 137.47588,68.0249632 131.847235,75.375 C126.218589,82.7250367 118.30108,87.8249858 108.094469,90.675 L142.766752,150.525 C143.217044,151.425005 143.442186,152.249996 143.442186,153 C143.442186,154.200006 142.954378,155.249996 141.978746,156.15 C141.003114,157.050005 139.914926,157.5 138.714148,157.5 L127.907203,157.5 C125.655744,157.5 123.892129,156.975005 122.616302,155.925 C121.340476,154.874995 120.17724,153.37501 119.126559,151.425 L86.4805788,94.275 L47.0802572,94.275 L47.0802572,152.325 C47.0802572,153.825007 46.5549249,155.062495 45.5042444,156.0375 C44.4535639,157.012505 43.1777567,157.5 41.6767846,157.5 L30.1944051,157.5 Z M84.2291318,75.15 C106.593617,75.15 117.775691,65.7750938 117.775691,47.025 C117.775691,28.2749062 106.593617,18.9 84.2291318,18.9 L47.0802572,18.9 L47.0802572,75.15 L84.2291318,75.15 Z M161.904051,157.5 C160.703274,157.5 159.652609,157.050005 158.752026,156.15 C157.851442,155.249996 157.401158,154.200006 157.401158,153 C157.401158,151.799994 157.476205,150.975002 157.626302,150.525 L213.462186,4.95 C214.662964,1.6499835 217.064484,0 220.666817,0 L235.976656,0 C239.578989,0 241.980508,1.6499835 243.181286,4.95 L298.792026,150.525 L299.242315,153 C299.242315,154.200006 298.79203,155.249996 297.891447,156.15 C296.990864,157.050005 295.940199,157.5 294.739421,157.5 L283.257042,157.5 C281.605972,157.5 280.330165,157.087504 279.429582,156.2625 C278.528999,155.437496 277.928619,154.575004 277.628424,153.675 L265.245466,121.725 L191.398006,121.725 L179.015048,153.675 C178.714854,154.575004 178.07695,155.437496 177.101318,156.2625 C176.125686,157.087504 174.887403,157.5 173.386431,157.5 L161.904051,157.5 Z M258.71627,102.375 L228.321736,22.5 L197.927203,102.375 L258.71627,102.375 Z M328.511125,157.5 C327.010153,157.5 325.77187,157.012505 324.796238,156.0375 C323.820606,155.062495 323.332797,153.825007 323.332797,152.325 L323.332797,5.4 C323.332797,3.74999175 323.820606,2.43750487 324.796238,1.4625 C325.77187,0.487495125 327.010153,0 328.511125,0 L339.76836,0 C342.169916,0 344.12115,1.199988 345.622122,3.6 L393.127653,94.5 L441.083473,3.6 C441.383667,2.6999955 442.021571,1.87500375 442.997203,1.125 C443.972834,0.37499625 445.211118,0 446.71209,0 L457.74418,0 C459.395249,0 460.70858,0.487495125 461.684212,1.4625 C462.659844,2.43750487 463.147653,3.74999175 463.147653,5.4 L463.147653,152.325 C463.147653,153.825007 462.62232,155.062495 461.57164,156.0375 C460.520959,157.012505 459.245152,157.5 457.74418,157.5 L446.71209,157.5 C445.211118,157.5 443.972834,157.012505 442.997203,156.0375 C442.021571,155.062495 441.533762,153.825007 441.533762,152.325 L441.533762,41.625 L403.934598,114.975 C402.433626,118.125016 400.032107,119.7 396.729968,119.7 L389.750482,119.7 C386.448344,119.7 384.046824,118.125016 382.545852,114.975 L344.721543,41.625 L344.721543,152.325 C344.721543,153.825007 344.233735,155.062495 343.258103,156.0375 C342.282471,157.012505 341.044188,157.5 339.543215,157.5 L328.511125,157.5 Z M507.276013,157.5 C505.775041,157.5 504.536757,157.012505 503.561125,156.0375 C502.585494,155.062495 502.097685,153.825007 502.097685,152.325 L502.097685,5.4 C502.097685,3.74999175 502.585494,2.43750487 503.561125,1.4625 C504.536757,0.487495125 505.775041,0 507.276013,0 L558.383859,0 C581.048538,0 597.408889,5.06244937 607.465402,15.1875 C617.521915,25.3125506 622.775239,40.574898 623.225531,60.975 C623.375628,65.3250218 623.450675,71.1749633 623.450675,78.525 C623.450675,85.8750367 623.375628,91.7999775 623.225531,96.3 C622.775239,110.550071 620.411243,122.137455 616.133473,131.0625 C611.855702,139.987545 605.138953,146.624978 595.983023,150.975 C586.827092,155.325022 574.669401,157.5 559.509582,157.5 L507.276013,157.5 Z M558.383859,138.375 C568.740566,138.375 576.958265,136.950014 583.037203,134.1 C589.11614,131.249986 593.543941,126.712531 596.32074,120.4875 C599.097538,114.262469 600.636011,105.900053 600.936206,95.4 C601.2364,86.399955 601.386495,80.7750112 601.386495,78.525 C601.386495,76.124988 601.2364,70.5750435 600.936206,61.875 C600.636011,47.0249258 597.10878,36.1875341 590.354405,29.3625 C583.600031,22.5374659 572.568051,19.125 557.258135,19.125 L524.161865,19.125 L524.161865,138.375 L558.383859,138.375 Z M716.660579,159.75 C697.298038,159.75 682.326066,154.537552 671.744212,144.1125 C661.162359,133.687448 655.871511,117.900106 655.871511,96.75 L655.871511,5.4 C655.871511,3.74999175 656.35932,2.43750487 657.334952,1.4625 C658.310584,0.487495125 659.548867,0 661.049839,0 L672.532219,0 C674.183288,0 675.496619,0.487495125 676.472251,1.4625 C677.447883,2.43750487 677.935691,3.74999175 677.935691,5.4 L677.935691,97.2 C677.935691,111.600072 681.312828,122.399964 688.067203,129.6 C694.821577,136.800036 704.352607,140.4 716.660579,140.4 C728.96855,140.4 738.49958,136.800036 745.253955,129.6 C752.00833,122.399964 755.385466,111.600072 755.385466,97.2 L755.385466,5.4 C755.385466,3.74999175 755.873275,2.43750487 756.848907,1.4625 C757.824539,0.487495125 759.062822,0 760.563794,0 L772.271318,0 C773.77229,0 775.010574,0.52499475 775.986206,1.575 C776.961838,2.62500525 777.449646,3.8999925 777.449646,5.4 L777.449646,96.75 C777.449646,117.900106 772.158799,133.687448 761.576945,144.1125 C750.995092,154.537552 736.023119,159.75 716.660579,159.75 Z" id="RAMDU" fill-opacity="0.699027535" fill="#EF9A9A"></path>
            </g>
        </g>
    </g>
</svg>